<mxfile host="app.diagrams.net" agent="Mozilla/5.0 (Macintosh; Intel Mac OS X 10_15_7) AppleWebKit/537.36 (KHTML, like Gecko) Chrome/135.0.0.0 Safari/537.36" version="26.2.14">
  <diagram name="Page-1" id="OkErCemOwEuDAzPWgcps">
    <mxGraphModel dx="434" dy="1950" grid="1" gridSize="10" guides="1" tooltips="1" connect="1" arrows="1" fold="1" page="1" pageScale="1" pageWidth="827" pageHeight="1169" math="0" shadow="0">
      <root>
        <mxCell id="0" />
        <mxCell id="1" parent="0" />
        <mxCell id="hsqG3OiaDTQRq622nMc--1" value="&lt;font style=&quot;font-size: 18px;&quot;&gt;Motion Detection&lt;/font&gt;" style="whiteSpace=wrap;html=1;" vertex="1" parent="1">
          <mxGeometry x="1365" y="-341" width="91" height="580" as="geometry" />
        </mxCell>
        <mxCell id="hsqG3OiaDTQRq622nMc--2" value="" style="endArrow=classic;html=1;rounded=0;strokeWidth=3;" edge="1" parent="1">
          <mxGeometry width="50" height="50" relative="1" as="geometry">
            <mxPoint x="1245" y="-281" as="sourcePoint" />
            <mxPoint x="1365" y="-282" as="targetPoint" />
          </mxGeometry>
        </mxCell>
        <mxCell id="hsqG3OiaDTQRq622nMc--3" value="&lt;font style=&quot;font-size: 18px;&quot;&gt;Clk&lt;/font&gt;" style="text;html=1;align=center;verticalAlign=middle;resizable=0;points=[];autosize=1;strokeColor=none;fillColor=none;" vertex="1" parent="1">
          <mxGeometry x="1280" y="-316" width="50" height="40" as="geometry" />
        </mxCell>
        <mxCell id="hsqG3OiaDTQRq622nMc--4" value="" style="endArrow=classic;html=1;rounded=0;strokeWidth=3;" edge="1" parent="1">
          <mxGeometry width="50" height="50" relative="1" as="geometry">
            <mxPoint x="1245" y="-240" as="sourcePoint" />
            <mxPoint x="1365" y="-240" as="targetPoint" />
          </mxGeometry>
        </mxCell>
        <mxCell id="hsqG3OiaDTQRq622nMc--5" value="&lt;span style=&quot;font-size: 18px;&quot;&gt;Reset&lt;/span&gt;" style="text;html=1;align=center;verticalAlign=middle;resizable=0;points=[];autosize=1;strokeColor=none;fillColor=none;" vertex="1" parent="1">
          <mxGeometry x="1265" y="-276" width="70" height="40" as="geometry" />
        </mxCell>
        <mxCell id="hsqG3OiaDTQRq622nMc--6" value="" style="endArrow=classic;html=1;rounded=0;strokeWidth=3;" edge="1" parent="1">
          <mxGeometry width="50" height="50" relative="1" as="geometry">
            <mxPoint x="1245" y="-205" as="sourcePoint" />
            <mxPoint x="1365" y="-205" as="targetPoint" />
          </mxGeometry>
        </mxCell>
        <mxCell id="hsqG3OiaDTQRq622nMc--7" value="&lt;span style=&quot;font-size: 18px;&quot;&gt;Enable&lt;/span&gt;" style="text;html=1;align=center;verticalAlign=middle;resizable=0;points=[];autosize=1;strokeColor=none;fillColor=none;" vertex="1" parent="1">
          <mxGeometry x="1260" y="-241" width="80" height="40" as="geometry" />
        </mxCell>
        <mxCell id="hsqG3OiaDTQRq622nMc--8" value="" style="endArrow=classic;html=1;rounded=0;strokeWidth=3;" edge="1" parent="1">
          <mxGeometry width="50" height="50" relative="1" as="geometry">
            <mxPoint x="1245" y="-118" as="sourcePoint" />
            <mxPoint x="1365" y="-119" as="targetPoint" />
          </mxGeometry>
        </mxCell>
        <mxCell id="hsqG3OiaDTQRq622nMc--9" value="&lt;span style=&quot;font-size: 18px;&quot;&gt;[7:0] curr_pixel&lt;/span&gt;" style="text;html=1;align=center;verticalAlign=middle;resizable=0;points=[];autosize=1;strokeColor=none;fillColor=none;" vertex="1" parent="1">
          <mxGeometry x="1215" y="-157" width="140" height="40" as="geometry" />
        </mxCell>
        <mxCell id="hsqG3OiaDTQRq622nMc--10" value="" style="endArrow=classic;html=1;rounded=0;strokeWidth=3;" edge="1" parent="1">
          <mxGeometry width="50" height="50" relative="1" as="geometry">
            <mxPoint x="1245" y="-72" as="sourcePoint" />
            <mxPoint x="1365" y="-73" as="targetPoint" />
          </mxGeometry>
        </mxCell>
        <mxCell id="hsqG3OiaDTQRq622nMc--11" value="&lt;span style=&quot;font-size: 18px;&quot;&gt;[7:0] prev_pixel&lt;/span&gt;" style="text;html=1;align=center;verticalAlign=middle;resizable=0;points=[];autosize=1;strokeColor=none;fillColor=none;" vertex="1" parent="1">
          <mxGeometry x="1210" y="-111" width="150" height="40" as="geometry" />
        </mxCell>
        <mxCell id="hsqG3OiaDTQRq622nMc--12" value="" style="endArrow=classic;html=1;rounded=0;strokeWidth=3;" edge="1" parent="1">
          <mxGeometry width="50" height="50" relative="1" as="geometry">
            <mxPoint x="1245" y="13" as="sourcePoint" />
            <mxPoint x="1365" y="12" as="targetPoint" />
          </mxGeometry>
        </mxCell>
        <mxCell id="hsqG3OiaDTQRq622nMc--13" value="&lt;span style=&quot;font-size: 18px;&quot;&gt;[7:0] Background&lt;/span&gt;" style="text;html=1;align=center;verticalAlign=middle;resizable=0;points=[];autosize=1;strokeColor=none;fillColor=none;" vertex="1" parent="1">
          <mxGeometry x="1205" y="-26" width="160" height="40" as="geometry" />
        </mxCell>
        <mxCell id="hsqG3OiaDTQRq622nMc--14" value="" style="endArrow=classic;html=1;rounded=0;strokeWidth=3;" edge="1" parent="1">
          <mxGeometry width="50" height="50" relative="1" as="geometry">
            <mxPoint x="1245" y="59" as="sourcePoint" />
            <mxPoint x="1365" y="58" as="targetPoint" />
          </mxGeometry>
        </mxCell>
        <mxCell id="hsqG3OiaDTQRq622nMc--15" value="&lt;span style=&quot;font-size: 18px;&quot;&gt;[7:0] Variance&lt;/span&gt;" style="text;html=1;align=center;verticalAlign=middle;resizable=0;points=[];autosize=1;strokeColor=none;fillColor=none;" vertex="1" parent="1">
          <mxGeometry x="1220" y="20" width="130" height="40" as="geometry" />
        </mxCell>
        <mxCell id="hsqG3OiaDTQRq622nMc--16" value="" style="endArrow=classic;html=1;rounded=0;strokeWidth=3;" edge="1" parent="1">
          <mxGeometry width="50" height="50" relative="1" as="geometry">
            <mxPoint x="1245" y="165" as="sourcePoint" />
            <mxPoint x="1365" y="164" as="targetPoint" />
          </mxGeometry>
        </mxCell>
        <mxCell id="hsqG3OiaDTQRq622nMc--17" value="&lt;font style=&quot;font-size: 18px;&quot;&gt;[7:0] Threshold&lt;/font&gt;" style="text;html=1;align=center;verticalAlign=middle;resizable=0;points=[];autosize=1;strokeColor=none;fillColor=none;" vertex="1" parent="1">
          <mxGeometry x="1225" y="130" width="140" height="40" as="geometry" />
        </mxCell>
        <mxCell id="hsqG3OiaDTQRq622nMc--18" value="" style="endArrow=classic;html=1;rounded=0;strokeWidth=3;" edge="1" parent="1">
          <mxGeometry width="50" height="50" relative="1" as="geometry">
            <mxPoint x="1457" y="-51" as="sourcePoint" />
            <mxPoint x="1577" y="-51" as="targetPoint" />
          </mxGeometry>
        </mxCell>
        <mxCell id="hsqG3OiaDTQRq622nMc--19" value="&lt;font style=&quot;font-size: 18px;&quot;&gt;Motion Detected&lt;/font&gt;" style="text;html=1;align=center;verticalAlign=middle;resizable=0;points=[];autosize=1;strokeColor=none;fillColor=none;" vertex="1" parent="1">
          <mxGeometry x="1450" y="-92" width="150" height="40" as="geometry" />
        </mxCell>
      </root>
    </mxGraphModel>
  </diagram>
</mxfile>
